# xmcd CD database file
#
# Track frame offsets:
#	150
#	23538
#	57548
#	91706
#	128142
#	158252
#	190374
#	217062
#	241305
#	272692
#
# Disc length: 3945 seconds
#
# Revision: 0
# Processed by: cddbd v1.5.2PL0 Copyright (c) Steve Scherf et al.
# Submitted via: CDex 1.51
#
DISCID=7f0f670a
DTITLE=Cinzia Tedesco - Rite time
DYEAR=2003
DGENRE=Jazz
TTITLE0=Better be alone
TTITLE1=Afro blue
TTITLE2=Rite time
TTITLE3=Closer to you
TTITLE4=Foxy trot
TTITLE5=Thr thrill is gone
TTITLE6=All you should ever want
TTITLE7=Said and done
TTITLE8=Sundance
TTITLE9=Better be alone
EXTD=YEAR: 2003
EXTT0=
EXTT1=
EXTT2=
EXTT3=
EXTT4=
EXTT5=
EXTT6=
EXTT7=
EXTT8=
EXTT9=
PLAYORDER=
